<?xml version="1.0" encoding="UTF-8"?>
<svg id="Layer_1" data-name="Layer 1" xmlns="http://www.w3.org/2000/svg" viewBox="0 0 236.29 332.94">
  <defs>
    <style>
      .cls-1 {
        fill: #1df38b;
      }

      .cls-1, .cls-2 {
        stroke-width: 0px;
      }

      .cls-2 {
        fill: #fff;
      }
    </style>
  </defs>
  <path class="cls-1" d="M64.87,274.76c9.59,2.68,18.43,5.81,27.52,7.55,22.41,4.27,43.22.43,60.81-14.91,13.83-12.06,18.43-28.01,17.48-45.87-.18-3.28-.75-6.54-1.24-10.55-2.28.63-4.15,1.01-5.93,1.66-12.84,4.67-26.13,6.55-39.74,6.19-53.13-1.38-98.31-42.28-104.85-94.9-4.29-34.51,5.36-64.83,29.04-90.06C66.12,14.54,88.87,3.43,115.55.67c27.92-2.89,53.4,3.59,75.88,20.22,28.51,21.09,43.55,49.55,44.79,85.24.78,22.53-5.05,43.09-16.63,62.3-1.34,2.22-1.53,5.78-.92,8.41,3.76,16.1,6.56,32.31,6.21,48.9-.56,26.44-8.49,50.2-27.05,69.54-14.27,14.86-32.02,24.3-51.48,30.58-29.14,9.4-58.23,9.74-87.26-.71-3.8-1.37-5.21-2.92-4.15-7.23,3.22-13.09,5.94-26.3,8.88-39.46.28-1.25.7-2.48,1.05-3.68ZM199.08,110.29c-.41-42.13-32.74-69.78-67.98-71.4-44.92-2.07-75.74,30.96-75.83,70.54-.1,41.16,31.04,73.35,75.33,72.09,32.28-.92,68.1-28.73,68.48-71.22Z"/>
  <path class="cls-2" d="M38.03,289.13c-.11,10.6-8.59,18.9-19.21,18.78C8.23,307.8-.1,299.3,0,288.72c.1-10.63,8.52-18.89,19.19-18.8,10.51.08,18.94,8.68,18.84,19.21Z"/>
  <path class="cls-2" d="M199.08,110.29c-.39,42.49-36.2,70.31-68.48,71.22-44.29,1.26-75.43-30.93-75.33-72.09.1-39.58,30.91-72.61,75.83-70.54,35.24,1.63,67.57,29.27,67.98,71.4Z"/>
</svg>